<mxfile host="Electron" agent="Mozilla/5.0 (Macintosh; Intel Mac OS X 10_15_7) AppleWebKit/537.36 (KHTML, like Gecko) draw.io/24.7.17 Chrome/128.0.6613.36 Electron/32.0.1 Safari/537.36" version="24.7.17">
  <diagram id="C5RBs43oDa-KdzZeNtuy" name="Page-1">
    <mxGraphModel dx="2109" dy="1128" grid="1" gridSize="10" guides="1" tooltips="1" connect="1" arrows="1" fold="1" page="1" pageScale="1" pageWidth="827" pageHeight="1169" math="0" shadow="0">
      <root>
        <mxCell id="WIyWlLk6GJQsqaUBKTNV-0" />
        <mxCell id="WIyWlLk6GJQsqaUBKTNV-1" parent="WIyWlLk6GJQsqaUBKTNV-0" />
        <mxCell id="YnKtwWlc_ndSzb7Eqo-F-9" style="edgeStyle=orthogonalEdgeStyle;rounded=0;orthogonalLoop=1;jettySize=auto;html=1;exitX=0.5;exitY=1;exitDx=0;exitDy=0;entryX=0.5;entryY=0;entryDx=0;entryDy=0;" parent="WIyWlLk6GJQsqaUBKTNV-1" source="jT1MtgrbQrkUiN0wVVsD-1" target="jT1MtgrbQrkUiN0wVVsD-2" edge="1">
          <mxGeometry relative="1" as="geometry" />
        </mxCell>
        <mxCell id="jT1MtgrbQrkUiN0wVVsD-1" value="打开存储源文件块哈希值的文件" style="rounded=0;whiteSpace=wrap;html=1;" parent="WIyWlLk6GJQsqaUBKTNV-1" vertex="1">
          <mxGeometry x="-190" y="180" width="110" height="50" as="geometry" />
        </mxCell>
        <mxCell id="jT1MtgrbQrkUiN0wVVsD-12" value="" style="edgeStyle=orthogonalEdgeStyle;rounded=0;orthogonalLoop=1;jettySize=auto;html=1;" parent="WIyWlLk6GJQsqaUBKTNV-1" source="jT1MtgrbQrkUiN0wVVsD-2" target="jT1MtgrbQrkUiN0wVVsD-4" edge="1">
          <mxGeometry relative="1" as="geometry" />
        </mxCell>
        <mxCell id="jT1MtgrbQrkUiN0wVVsD-20" value="" style="edgeStyle=orthogonalEdgeStyle;rounded=0;orthogonalLoop=1;jettySize=auto;html=1;" parent="WIyWlLk6GJQsqaUBKTNV-1" source="jT1MtgrbQrkUiN0wVVsD-2" target="jT1MtgrbQrkUiN0wVVsD-3" edge="1">
          <mxGeometry relative="1" as="geometry" />
        </mxCell>
        <mxCell id="jT1MtgrbQrkUiN0wVVsD-2" value="指针在文件尾?" style="rhombus;whiteSpace=wrap;html=1;" parent="WIyWlLk6GJQsqaUBKTNV-1" vertex="1">
          <mxGeometry x="-202.5" y="260" width="135" height="70" as="geometry" />
        </mxCell>
        <mxCell id="jT1MtgrbQrkUiN0wVVsD-21" value="" style="edgeStyle=orthogonalEdgeStyle;rounded=0;orthogonalLoop=1;jettySize=auto;html=1;" parent="WIyWlLk6GJQsqaUBKTNV-1" source="jT1MtgrbQrkUiN0wVVsD-3" target="jT1MtgrbQrkUiN0wVVsD-10" edge="1">
          <mxGeometry relative="1" as="geometry" />
        </mxCell>
        <mxCell id="jT1MtgrbQrkUiN0wVVsD-3" value="关闭哈希文件" style="rounded=0;whiteSpace=wrap;html=1;" parent="WIyWlLk6GJQsqaUBKTNV-1" vertex="1">
          <mxGeometry x="-24" y="270" width="110" height="50" as="geometry" />
        </mxCell>
        <mxCell id="YnKtwWlc_ndSzb7Eqo-F-10" style="edgeStyle=orthogonalEdgeStyle;rounded=0;orthogonalLoop=1;jettySize=auto;html=1;exitX=0.5;exitY=1;exitDx=0;exitDy=0;entryX=0.5;entryY=0;entryDx=0;entryDy=0;" parent="WIyWlLk6GJQsqaUBKTNV-1" source="jT1MtgrbQrkUiN0wVVsD-4" target="jT1MtgrbQrkUiN0wVVsD-6" edge="1">
          <mxGeometry relative="1" as="geometry" />
        </mxCell>
        <mxCell id="jT1MtgrbQrkUiN0wVVsD-4" value="读取哈希值&lt;div&gt;(指针后移)&lt;/div&gt;" style="rounded=0;whiteSpace=wrap;html=1;" parent="WIyWlLk6GJQsqaUBKTNV-1" vertex="1">
          <mxGeometry x="-190" y="360" width="110" height="50" as="geometry" />
        </mxCell>
        <mxCell id="jT1MtgrbQrkUiN0wVVsD-16" value="" style="edgeStyle=orthogonalEdgeStyle;rounded=0;orthogonalLoop=1;jettySize=auto;html=1;" parent="WIyWlLk6GJQsqaUBKTNV-1" source="jT1MtgrbQrkUiN0wVVsD-6" target="jT1MtgrbQrkUiN0wVVsD-7" edge="1">
          <mxGeometry relative="1" as="geometry" />
        </mxCell>
        <mxCell id="YnKtwWlc_ndSzb7Eqo-F-18" value="" style="edgeStyle=orthogonalEdgeStyle;rounded=0;orthogonalLoop=1;jettySize=auto;html=1;exitX=0;exitY=0.5;exitDx=0;exitDy=0;" parent="WIyWlLk6GJQsqaUBKTNV-1" source="jT1MtgrbQrkUiN0wVVsD-6" target="jT1MtgrbQrkUiN0wVVsD-8" edge="1">
          <mxGeometry relative="1" as="geometry">
            <mxPoint x="-212.5" y="475" as="sourcePoint" />
          </mxGeometry>
        </mxCell>
        <mxCell id="jT1MtgrbQrkUiN0wVVsD-6" value="哈希值在数据库?" style="rhombus;whiteSpace=wrap;html=1;" parent="WIyWlLk6GJQsqaUBKTNV-1" vertex="1">
          <mxGeometry x="-202.5" y="440" width="135" height="70" as="geometry" />
        </mxCell>
        <mxCell id="YnKtwWlc_ndSzb7Eqo-F-15" style="edgeStyle=orthogonalEdgeStyle;rounded=0;orthogonalLoop=1;jettySize=auto;html=1;exitX=0.5;exitY=1;exitDx=0;exitDy=0;entryX=1;entryY=0.5;entryDx=0;entryDy=0;" parent="WIyWlLk6GJQsqaUBKTNV-1" source="jT1MtgrbQrkUiN0wVVsD-7" target="YnKtwWlc_ndSzb7Eqo-F-3" edge="1">
          <mxGeometry relative="1" as="geometry" />
        </mxCell>
        <mxCell id="jT1MtgrbQrkUiN0wVVsD-7" value="生成固定空白块" style="rounded=0;whiteSpace=wrap;html=1;" parent="WIyWlLk6GJQsqaUBKTNV-1" vertex="1">
          <mxGeometry x="-24" y="450" width="110" height="50" as="geometry" />
        </mxCell>
        <mxCell id="jT1MtgrbQrkUiN0wVVsD-18" value="" style="edgeStyle=orthogonalEdgeStyle;rounded=0;orthogonalLoop=1;jettySize=auto;html=1;" parent="WIyWlLk6GJQsqaUBKTNV-1" source="jT1MtgrbQrkUiN0wVVsD-8" target="jT1MtgrbQrkUiN0wVVsD-9" edge="1">
          <mxGeometry relative="1" as="geometry" />
        </mxCell>
        <mxCell id="jT1MtgrbQrkUiN0wVVsD-8" value="读取块信息" style="rounded=0;whiteSpace=wrap;html=1;" parent="WIyWlLk6GJQsqaUBKTNV-1" vertex="1">
          <mxGeometry x="-350" y="450" width="110" height="50" as="geometry" />
        </mxCell>
        <mxCell id="YnKtwWlc_ndSzb7Eqo-F-12" value="" style="edgeStyle=orthogonalEdgeStyle;rounded=0;orthogonalLoop=1;jettySize=auto;html=1;" parent="WIyWlLk6GJQsqaUBKTNV-1" source="jT1MtgrbQrkUiN0wVVsD-9" target="YnKtwWlc_ndSzb7Eqo-F-2" edge="1">
          <mxGeometry relative="1" as="geometry" />
        </mxCell>
        <mxCell id="jT1MtgrbQrkUiN0wVVsD-9" value="打开块所在文件" style="rounded=0;whiteSpace=wrap;html=1;" parent="WIyWlLk6GJQsqaUBKTNV-1" vertex="1">
          <mxGeometry x="-350" y="530" width="110" height="50" as="geometry" />
        </mxCell>
        <mxCell id="jT1MtgrbQrkUiN0wVVsD-10" value="结束" style="ellipse;whiteSpace=wrap;html=1;" parent="WIyWlLk6GJQsqaUBKTNV-1" vertex="1">
          <mxGeometry x="-14" y="350" width="90" height="40" as="geometry" />
        </mxCell>
        <mxCell id="jT1MtgrbQrkUiN0wVVsD-43" value="Yes" style="text;html=1;align=center;verticalAlign=middle;resizable=0;points=[];autosize=1;strokeColor=none;fillColor=none;" parent="WIyWlLk6GJQsqaUBKTNV-1" vertex="1">
          <mxGeometry x="-69.5" y="270" width="40" height="30" as="geometry" />
        </mxCell>
        <mxCell id="jT1MtgrbQrkUiN0wVVsD-45" value="No" style="text;html=1;align=center;verticalAlign=middle;resizable=0;points=[];autosize=1;strokeColor=none;fillColor=none;" parent="WIyWlLk6GJQsqaUBKTNV-1" vertex="1">
          <mxGeometry x="-140" y="330" width="40" height="30" as="geometry" />
        </mxCell>
        <mxCell id="jT1MtgrbQrkUiN0wVVsD-48" value="No" style="text;html=1;align=center;verticalAlign=middle;resizable=0;points=[];autosize=1;strokeColor=none;fillColor=none;" parent="WIyWlLk6GJQsqaUBKTNV-1" vertex="1">
          <mxGeometry x="-69.5" y="450" width="40" height="30" as="geometry" />
        </mxCell>
        <mxCell id="jT1MtgrbQrkUiN0wVVsD-50" value="Yes" style="text;html=1;align=center;verticalAlign=middle;resizable=0;points=[];autosize=1;strokeColor=none;fillColor=none;" parent="WIyWlLk6GJQsqaUBKTNV-1" vertex="1">
          <mxGeometry x="-237" y="452" width="40" height="30" as="geometry" />
        </mxCell>
        <mxCell id="YnKtwWlc_ndSzb7Eqo-F-14" style="edgeStyle=orthogonalEdgeStyle;rounded=0;orthogonalLoop=1;jettySize=auto;html=1;exitX=0.5;exitY=1;exitDx=0;exitDy=0;entryX=0.5;entryY=0;entryDx=0;entryDy=0;" parent="WIyWlLk6GJQsqaUBKTNV-1" source="YnKtwWlc_ndSzb7Eqo-F-2" target="YnKtwWlc_ndSzb7Eqo-F-3" edge="1">
          <mxGeometry relative="1" as="geometry" />
        </mxCell>
        <mxCell id="YnKtwWlc_ndSzb7Eqo-F-2" value="读取对应块的源数据" style="rounded=0;whiteSpace=wrap;html=1;" parent="WIyWlLk6GJQsqaUBKTNV-1" vertex="1">
          <mxGeometry x="-350" y="610" width="110" height="50" as="geometry" />
        </mxCell>
        <mxCell id="YnKtwWlc_ndSzb7Eqo-F-19" style="edgeStyle=orthogonalEdgeStyle;rounded=0;orthogonalLoop=1;jettySize=auto;html=1;exitX=0;exitY=0.5;exitDx=0;exitDy=0;entryX=0;entryY=0.5;entryDx=0;entryDy=0;" parent="WIyWlLk6GJQsqaUBKTNV-1" source="YnKtwWlc_ndSzb7Eqo-F-3" target="jT1MtgrbQrkUiN0wVVsD-2" edge="1">
          <mxGeometry relative="1" as="geometry">
            <Array as="points">
              <mxPoint x="-400" y="715" />
              <mxPoint x="-400" y="295" />
            </Array>
          </mxGeometry>
        </mxCell>
        <mxCell id="YnKtwWlc_ndSzb7Eqo-F-3" value="写入恢复文件" style="rounded=0;whiteSpace=wrap;html=1;" parent="WIyWlLk6GJQsqaUBKTNV-1" vertex="1">
          <mxGeometry x="-350" y="690" width="110" height="50" as="geometry" />
        </mxCell>
        <mxCell id="YnKtwWlc_ndSzb7Eqo-F-6" value="" style="edgeStyle=orthogonalEdgeStyle;rounded=0;orthogonalLoop=1;jettySize=auto;html=1;" parent="WIyWlLk6GJQsqaUBKTNV-1" source="YnKtwWlc_ndSzb7Eqo-F-4" target="YnKtwWlc_ndSzb7Eqo-F-5" edge="1">
          <mxGeometry relative="1" as="geometry" />
        </mxCell>
        <mxCell id="YnKtwWlc_ndSzb7Eqo-F-4" value="开始" style="ellipse;whiteSpace=wrap;html=1;" parent="WIyWlLk6GJQsqaUBKTNV-1" vertex="1">
          <mxGeometry x="-350" y="105" width="90" height="40" as="geometry" />
        </mxCell>
        <mxCell id="YnKtwWlc_ndSzb7Eqo-F-8" style="edgeStyle=orthogonalEdgeStyle;rounded=0;orthogonalLoop=1;jettySize=auto;html=1;exitX=0.5;exitY=1;exitDx=0;exitDy=0;entryX=0.5;entryY=0;entryDx=0;entryDy=0;" parent="WIyWlLk6GJQsqaUBKTNV-1" source="YnKtwWlc_ndSzb7Eqo-F-5" target="jT1MtgrbQrkUiN0wVVsD-1" edge="1">
          <mxGeometry relative="1" as="geometry" />
        </mxCell>
        <mxCell id="YnKtwWlc_ndSzb7Eqo-F-5" value="获取恢复所用的&lt;div&gt;哈希算法和块大小&lt;/div&gt;" style="rounded=0;whiteSpace=wrap;html=1;" parent="WIyWlLk6GJQsqaUBKTNV-1" vertex="1">
          <mxGeometry x="-190" y="100" width="110" height="50" as="geometry" />
        </mxCell>
        <mxCell id="YnKtwWlc_ndSzb7Eqo-F-20" style="edgeStyle=orthogonalEdgeStyle;rounded=0;orthogonalLoop=1;jettySize=auto;html=1;exitX=0.5;exitY=1;exitDx=0;exitDy=0;entryX=0.5;entryY=0;entryDx=0;entryDy=0;" parent="WIyWlLk6GJQsqaUBKTNV-1" source="YnKtwWlc_ndSzb7Eqo-F-21" target="YnKtwWlc_ndSzb7Eqo-F-24" edge="1">
          <mxGeometry relative="1" as="geometry" />
        </mxCell>
        <mxCell id="YnKtwWlc_ndSzb7Eqo-F-21" value="Open the file storing the source file block hashes" style="rounded=0;whiteSpace=wrap;html=1;" parent="WIyWlLk6GJQsqaUBKTNV-1" vertex="1">
          <mxGeometry x="370" y="160" width="110" height="50" as="geometry" />
        </mxCell>
        <mxCell id="YnKtwWlc_ndSzb7Eqo-F-22" value="" style="edgeStyle=orthogonalEdgeStyle;rounded=0;orthogonalLoop=1;jettySize=auto;html=1;" parent="WIyWlLk6GJQsqaUBKTNV-1" source="YnKtwWlc_ndSzb7Eqo-F-24" target="YnKtwWlc_ndSzb7Eqo-F-28" edge="1">
          <mxGeometry relative="1" as="geometry" />
        </mxCell>
        <mxCell id="YnKtwWlc_ndSzb7Eqo-F-23" value="" style="edgeStyle=orthogonalEdgeStyle;rounded=0;orthogonalLoop=1;jettySize=auto;html=1;" parent="WIyWlLk6GJQsqaUBKTNV-1" source="YnKtwWlc_ndSzb7Eqo-F-24" target="YnKtwWlc_ndSzb7Eqo-F-26" edge="1">
          <mxGeometry relative="1" as="geometry" />
        </mxCell>
        <mxCell id="YnKtwWlc_ndSzb7Eqo-F-24" value="Pointer at the&lt;div&gt;end of the file?&lt;/div&gt;" style="rhombus;whiteSpace=wrap;html=1;" parent="WIyWlLk6GJQsqaUBKTNV-1" vertex="1">
          <mxGeometry x="357.5" y="240" width="135" height="70" as="geometry" />
        </mxCell>
        <mxCell id="YnKtwWlc_ndSzb7Eqo-F-25" value="" style="edgeStyle=orthogonalEdgeStyle;rounded=0;orthogonalLoop=1;jettySize=auto;html=1;" parent="WIyWlLk6GJQsqaUBKTNV-1" source="YnKtwWlc_ndSzb7Eqo-F-26" target="YnKtwWlc_ndSzb7Eqo-F-38" edge="1">
          <mxGeometry relative="1" as="geometry" />
        </mxCell>
        <mxCell id="YnKtwWlc_ndSzb7Eqo-F-26" value="Close hash file" style="rounded=0;whiteSpace=wrap;html=1;" parent="WIyWlLk6GJQsqaUBKTNV-1" vertex="1">
          <mxGeometry x="536" y="250" width="110" height="50" as="geometry" />
        </mxCell>
        <mxCell id="YnKtwWlc_ndSzb7Eqo-F-27" style="edgeStyle=orthogonalEdgeStyle;rounded=0;orthogonalLoop=1;jettySize=auto;html=1;exitX=0.5;exitY=1;exitDx=0;exitDy=0;entryX=0.5;entryY=0;entryDx=0;entryDy=0;" parent="WIyWlLk6GJQsqaUBKTNV-1" source="YnKtwWlc_ndSzb7Eqo-F-28" target="YnKtwWlc_ndSzb7Eqo-F-31" edge="1">
          <mxGeometry relative="1" as="geometry" />
        </mxCell>
        <mxCell id="YnKtwWlc_ndSzb7Eqo-F-28" value="&lt;div&gt;Read the hash&lt;/div&gt;&lt;div&gt;(Pointer move back)&lt;/div&gt;" style="rounded=0;whiteSpace=wrap;html=1;" parent="WIyWlLk6GJQsqaUBKTNV-1" vertex="1">
          <mxGeometry x="370" y="340" width="110" height="50" as="geometry" />
        </mxCell>
        <mxCell id="YnKtwWlc_ndSzb7Eqo-F-29" value="" style="edgeStyle=orthogonalEdgeStyle;rounded=0;orthogonalLoop=1;jettySize=auto;html=1;" parent="WIyWlLk6GJQsqaUBKTNV-1" source="YnKtwWlc_ndSzb7Eqo-F-31" target="YnKtwWlc_ndSzb7Eqo-F-33" edge="1">
          <mxGeometry relative="1" as="geometry" />
        </mxCell>
        <mxCell id="YnKtwWlc_ndSzb7Eqo-F-30" value="" style="edgeStyle=orthogonalEdgeStyle;rounded=0;orthogonalLoop=1;jettySize=auto;html=1;exitX=0;exitY=0.5;exitDx=0;exitDy=0;" parent="WIyWlLk6GJQsqaUBKTNV-1" source="YnKtwWlc_ndSzb7Eqo-F-31" target="YnKtwWlc_ndSzb7Eqo-F-35" edge="1">
          <mxGeometry relative="1" as="geometry">
            <mxPoint x="347.5" y="455" as="sourcePoint" />
          </mxGeometry>
        </mxCell>
        <mxCell id="YnKtwWlc_ndSzb7Eqo-F-31" value="Hash value&amp;nbsp;&lt;div&gt;in database?&lt;/div&gt;" style="rhombus;whiteSpace=wrap;html=1;" parent="WIyWlLk6GJQsqaUBKTNV-1" vertex="1">
          <mxGeometry x="357.5" y="420" width="135" height="70" as="geometry" />
        </mxCell>
        <mxCell id="YnKtwWlc_ndSzb7Eqo-F-32" style="edgeStyle=orthogonalEdgeStyle;rounded=0;orthogonalLoop=1;jettySize=auto;html=1;exitX=0.5;exitY=1;exitDx=0;exitDy=0;entryX=1;entryY=0.5;entryDx=0;entryDy=0;" parent="WIyWlLk6GJQsqaUBKTNV-1" source="YnKtwWlc_ndSzb7Eqo-F-33" target="YnKtwWlc_ndSzb7Eqo-F-46" edge="1">
          <mxGeometry relative="1" as="geometry" />
        </mxCell>
        <mxCell id="YnKtwWlc_ndSzb7Eqo-F-33" value="Generate a fixed blank block" style="rounded=0;whiteSpace=wrap;html=1;" parent="WIyWlLk6GJQsqaUBKTNV-1" vertex="1">
          <mxGeometry x="536" y="430" width="110" height="50" as="geometry" />
        </mxCell>
        <mxCell id="YnKtwWlc_ndSzb7Eqo-F-34" value="" style="edgeStyle=orthogonalEdgeStyle;rounded=0;orthogonalLoop=1;jettySize=auto;html=1;" parent="WIyWlLk6GJQsqaUBKTNV-1" source="YnKtwWlc_ndSzb7Eqo-F-35" target="YnKtwWlc_ndSzb7Eqo-F-37" edge="1">
          <mxGeometry relative="1" as="geometry" />
        </mxCell>
        <mxCell id="YnKtwWlc_ndSzb7Eqo-F-51" value="" style="edgeStyle=orthogonalEdgeStyle;rounded=0;orthogonalLoop=1;jettySize=auto;html=1;" parent="WIyWlLk6GJQsqaUBKTNV-1" source="YnKtwWlc_ndSzb7Eqo-F-35" target="YnKtwWlc_ndSzb7Eqo-F-44" edge="1">
          <mxGeometry relative="1" as="geometry" />
        </mxCell>
        <mxCell id="YnKtwWlc_ndSzb7Eqo-F-35" value="Read block information" style="rounded=0;whiteSpace=wrap;html=1;" parent="WIyWlLk6GJQsqaUBKTNV-1" vertex="1">
          <mxGeometry x="210" y="430" width="110" height="50" as="geometry" />
        </mxCell>
        <mxCell id="YnKtwWlc_ndSzb7Eqo-F-36" value="" style="edgeStyle=orthogonalEdgeStyle;rounded=0;orthogonalLoop=1;jettySize=auto;html=1;" parent="WIyWlLk6GJQsqaUBKTNV-1" source="YnKtwWlc_ndSzb7Eqo-F-37" target="YnKtwWlc_ndSzb7Eqo-F-44" edge="1">
          <mxGeometry relative="1" as="geometry" />
        </mxCell>
        <mxCell id="YnKtwWlc_ndSzb7Eqo-F-37" value="Open file where the block is located" style="rounded=0;whiteSpace=wrap;html=1;" parent="WIyWlLk6GJQsqaUBKTNV-1" vertex="1">
          <mxGeometry x="210" y="510" width="110" height="50" as="geometry" />
        </mxCell>
        <mxCell id="YnKtwWlc_ndSzb7Eqo-F-38" value="END" style="ellipse;whiteSpace=wrap;html=1;" parent="WIyWlLk6GJQsqaUBKTNV-1" vertex="1">
          <mxGeometry x="546" y="330" width="90" height="40" as="geometry" />
        </mxCell>
        <mxCell id="YnKtwWlc_ndSzb7Eqo-F-39" value="Yes" style="text;html=1;align=center;verticalAlign=middle;resizable=0;points=[];autosize=1;strokeColor=none;fillColor=none;" parent="WIyWlLk6GJQsqaUBKTNV-1" vertex="1">
          <mxGeometry x="490.5" y="250" width="40" height="30" as="geometry" />
        </mxCell>
        <mxCell id="YnKtwWlc_ndSzb7Eqo-F-40" value="No" style="text;html=1;align=center;verticalAlign=middle;resizable=0;points=[];autosize=1;strokeColor=none;fillColor=none;" parent="WIyWlLk6GJQsqaUBKTNV-1" vertex="1">
          <mxGeometry x="420" y="310" width="40" height="30" as="geometry" />
        </mxCell>
        <mxCell id="YnKtwWlc_ndSzb7Eqo-F-41" value="No" style="text;html=1;align=center;verticalAlign=middle;resizable=0;points=[];autosize=1;strokeColor=none;fillColor=none;" parent="WIyWlLk6GJQsqaUBKTNV-1" vertex="1">
          <mxGeometry x="490.5" y="430" width="40" height="30" as="geometry" />
        </mxCell>
        <mxCell id="YnKtwWlc_ndSzb7Eqo-F-42" value="Yes" style="text;html=1;align=center;verticalAlign=middle;resizable=0;points=[];autosize=1;strokeColor=none;fillColor=none;" parent="WIyWlLk6GJQsqaUBKTNV-1" vertex="1">
          <mxGeometry x="323" y="432" width="40" height="30" as="geometry" />
        </mxCell>
        <mxCell id="YnKtwWlc_ndSzb7Eqo-F-43" style="edgeStyle=orthogonalEdgeStyle;rounded=0;orthogonalLoop=1;jettySize=auto;html=1;exitX=0.5;exitY=1;exitDx=0;exitDy=0;entryX=0.5;entryY=0;entryDx=0;entryDy=0;" parent="WIyWlLk6GJQsqaUBKTNV-1" source="YnKtwWlc_ndSzb7Eqo-F-44" target="YnKtwWlc_ndSzb7Eqo-F-46" edge="1">
          <mxGeometry relative="1" as="geometry" />
        </mxCell>
        <mxCell id="YnKtwWlc_ndSzb7Eqo-F-44" value="Read the source data of the corresponding block" style="rounded=0;whiteSpace=wrap;html=1;" parent="WIyWlLk6GJQsqaUBKTNV-1" vertex="1">
          <mxGeometry x="210" y="590" width="110" height="50" as="geometry" />
        </mxCell>
        <mxCell id="YnKtwWlc_ndSzb7Eqo-F-45" style="edgeStyle=orthogonalEdgeStyle;rounded=0;orthogonalLoop=1;jettySize=auto;html=1;exitX=0;exitY=0.5;exitDx=0;exitDy=0;entryX=0;entryY=0.5;entryDx=0;entryDy=0;" parent="WIyWlLk6GJQsqaUBKTNV-1" source="YnKtwWlc_ndSzb7Eqo-F-46" target="YnKtwWlc_ndSzb7Eqo-F-24" edge="1">
          <mxGeometry relative="1" as="geometry">
            <Array as="points">
              <mxPoint x="160" y="695" />
              <mxPoint x="160" y="275" />
            </Array>
          </mxGeometry>
        </mxCell>
        <mxCell id="YnKtwWlc_ndSzb7Eqo-F-46" value="Write to&lt;div&gt;Recovery File&lt;/div&gt;" style="rounded=0;whiteSpace=wrap;html=1;" parent="WIyWlLk6GJQsqaUBKTNV-1" vertex="1">
          <mxGeometry x="210" y="670" width="110" height="50" as="geometry" />
        </mxCell>
        <mxCell id="YnKtwWlc_ndSzb7Eqo-F-47" value="" style="edgeStyle=orthogonalEdgeStyle;rounded=0;orthogonalLoop=1;jettySize=auto;html=1;" parent="WIyWlLk6GJQsqaUBKTNV-1" source="YnKtwWlc_ndSzb7Eqo-F-48" target="YnKtwWlc_ndSzb7Eqo-F-50" edge="1">
          <mxGeometry relative="1" as="geometry" />
        </mxCell>
        <mxCell id="YnKtwWlc_ndSzb7Eqo-F-48" value="START" style="ellipse;whiteSpace=wrap;html=1;" parent="WIyWlLk6GJQsqaUBKTNV-1" vertex="1">
          <mxGeometry x="190" y="85" width="90" height="40" as="geometry" />
        </mxCell>
        <mxCell id="YnKtwWlc_ndSzb7Eqo-F-49" style="edgeStyle=orthogonalEdgeStyle;rounded=0;orthogonalLoop=1;jettySize=auto;html=1;exitX=0.5;exitY=1;exitDx=0;exitDy=0;entryX=0.5;entryY=0;entryDx=0;entryDy=0;" parent="WIyWlLk6GJQsqaUBKTNV-1" source="YnKtwWlc_ndSzb7Eqo-F-50" target="YnKtwWlc_ndSzb7Eqo-F-21" edge="1">
          <mxGeometry relative="1" as="geometry" />
        </mxCell>
        <mxCell id="YnKtwWlc_ndSzb7Eqo-F-50" value="Get the hash algorithm and block size&amp;nbsp;&lt;div&gt;used for recovery&lt;/div&gt;" style="rounded=0;whiteSpace=wrap;html=1;" parent="WIyWlLk6GJQsqaUBKTNV-1" vertex="1">
          <mxGeometry x="360.5" y="80" width="130" height="50" as="geometry" />
        </mxCell>
      </root>
    </mxGraphModel>
  </diagram>
</mxfile>
